<svg width="86" height="158" viewBox="0 0 86 158" fill="none" xmlns="http://www.w3.org/2000/svg">
<rect width="86" height="158" fill="#E5E5E5"/>
<path d="M5.112 116.736L0.696 108.864C3.98133 107.627 7.33067 105.621 10.744 102.848C14.1573 100.075 16.5253 96.2347 17.848 91.328C18.8293 87.5733 19.4053 82.7307 19.576 76.8C19.7893 70.8693 19.896 64.5973 19.896 57.984V0.895996H35V57.728C35 63.9147 35.0213 69.8027 35.064 75.392C35.1067 80.9387 34.7013 85.9947 33.848 90.56C33.08 94.6987 31.6507 98.3253 29.56 101.44C27.512 104.555 25.08 107.179 22.264 109.312C19.4907 111.445 16.5893 113.131 13.56 114.368C10.5733 115.605 7.75733 116.395 5.112 116.736Z" fill="#3631F0"/>
<path d="M15.952 108.832C15.952 100.939 17.1253 93.9627 19.472 87.904C21.8613 81.8453 25.1253 76.7253 29.264 72.544C33.4027 68.3627 38.1387 65.2053 43.472 63.072C48.848 60.9387 54.5013 59.872 60.432 59.872C65.2107 59.872 69.2213 60.128 72.464 60.64C75.7493 61.1093 78.4373 61.6213 80.528 62.176C82.6187 62.7307 84.304 63.1573 85.584 63.456L83.408 76.832C82.7253 76.4053 81.552 75.808 79.888 75.04C78.224 74.272 75.8987 73.568 72.912 72.928C69.9253 72.2453 66.0853 71.904 61.392 71.904C55.248 71.904 49.8933 73.376 45.328 76.32C40.7627 79.2213 37.2213 83.3813 34.704 88.8C32.2293 94.176 30.992 100.555 30.992 107.936C30.992 115.189 32.208 121.632 34.64 127.264C37.1147 132.853 40.656 137.248 45.264 140.448C49.872 143.648 55.3547 145.248 61.712 145.248C64.8693 145.248 68.0053 144.949 71.12 144.352C74.2773 143.755 77.072 143.008 79.504 142.112C81.9787 141.216 83.7707 140.299 84.88 139.36V152.032C83.0453 152.757 81.0187 153.504 78.8 154.272C76.5813 155.04 74.0213 155.68 71.12 156.192C68.2613 156.747 64.8693 157.024 60.944 157.024C51.856 157.024 43.9413 155.019 37.2 151.008C30.4587 146.955 25.232 141.323 21.52 134.112C17.808 126.859 15.952 118.432 15.952 108.832Z" fill="#3631F0"/>
</svg>
